<svg xmlns="http://www.w3.org/2000/svg" viewBox="0 0 240 180" width="240" height="180">
  <defs>
    <linearGradient id="base" x1="0" x2="1" y1="0" y2="1"><stop offset="0" stop-color="#93613c"/><stop offset="1" stop-color="#4f3024"/></linearGradient>
    <linearGradient id="grass" x1="0" x2="1"><stop offset="0" stop-color="#83d65a"/><stop offset="1" stop-color="#317c38"/></linearGradient>
  </defs>
  <rect width="240" height="180" fill="#2f2f2f"/>
  <polygon points="35,130 105,88 205,112 132,160" fill="url(#base)" stroke="#201812" stroke-width="3"/>
  <polygon points="55,112 112,80 184,99 127,135" fill="url(#grass)" stroke="#214d27" stroke-width="3"/>
  <path d="M73 96c10-17 38-19 50-2 12-12 37-7 43 10-16 4-33 9-50 16-13-9-28-15-43-24z" fill="#74c34a"/>
  <ellipse cx="115" cy="104" rx="25" ry="16" fill="#f0eadf" stroke="#4f4135" stroke-width="3"/>
  <circle cx="93" cy="95" r="10" fill="#f0eadf" stroke="#4f4135" stroke-width="3"/>
  <circle cx="88" cy="93" r="3" fill="#222"/>
  <path d="M98 84c-7-10-17-7-17 3" fill="none" stroke="#7a5a37" stroke-width="5" stroke-linecap="round"/>
  <path d="M102 86c5-12 16-10 16 0" fill="none" stroke="#7a5a37" stroke-width="5" stroke-linecap="round"/>
  <rect x="134" y="68" width="42" height="34" rx="6" fill="#d08745" stroke="#5b321e" stroke-width="3"/>
  <path d="M134 68l20-16 22 16" fill="#366fa8" stroke="#153752" stroke-width="3"/>
</svg>
