<svg xmlns="http://www.w3.org/2000/svg" viewBox="0 0 96 96">
  <defs>
    <linearGradient id="g" x1="18" y1="12" x2="80" y2="86" gradientUnits="userSpaceOnUse">
      <stop offset="0" stop-color="#4d5361"/>
      <stop offset="0.52" stop-color="#222833"/>
      <stop offset="1" stop-color="#0d1118"/>
    </linearGradient>
    <linearGradient id="h" x1="26" y1="21" x2="56" y2="53" gradientUnits="userSpaceOnUse">
      <stop offset="0" stop-color="#9aa2b4" stop-opacity=".82"/>
      <stop offset="1" stop-color="#ffffff" stop-opacity="0"/>
    </linearGradient>
  </defs>
  <rect width="96" height="96" rx="18" fill="#fff8e8"/>
  <ellipse cx="49" cy="75" rx="31" ry="8" fill="#1c1f25" opacity=".22"/>
  <path d="M21 37c3-12 17-21 35-18 16 3 29 15 25 29-4 16-20 27-38 24-16-2-26-18-22-35z" fill="url(#g)" stroke="#10141b" stroke-width="3"/>
  <path d="M32 31c6-5 18-8 29-3 6 3 10 8 11 13-11-7-30-10-47 4 1-5 3-10 7-14z" fill="url(#h)"/>
  <path d="M30 57c11 9 29 10 43-2" fill="none" stroke="#06080c" stroke-width="5" stroke-linecap="round" opacity=".55"/>
  <path d="M40 25c10-2 24 2 31 12" fill="none" stroke="#717987" stroke-width="3" stroke-linecap="round" opacity=".55"/>
</svg>
